<?xml version="1.0" ?><!DOCTYPE svg  PUBLIC '-//W3C//DTD SVG 1.1//EN'  'http://www.w3.org/Graphics/SVG/1.1/DTD/svg11.dtd'><svg enable-background="new 0 0 512 512" height="512px" id="instagram_2_" version="1.1" viewBox="0 0 512 512" width="512px" xml:space="preserve" xmlns="http://www.w3.org/2000/svg" xmlns:xlink="http://www.w3.org/1999/xlink"><g id="bg_copy_22"><g><polygon fill="#2D5B81" points="0,0 0,512 355,512 512,354 512,0   "/></g></g><g id="instagram"><g><path clip-rule="evenodd" d="M396,84H114c-16.568,0-30,13.432-30,30v282    c0,16.568,13.432,30,30,30h282c16.568,0,30-13.432,30-30V114C426,97.432,412.568,84,396,84z M255,176.705    c40.308,0,72.983,32.66,72.983,72.948c0,40.287-32.676,72.947-72.983,72.947s-72.984-32.66-72.984-72.947    C182.016,209.365,214.692,176.705,255,176.705z M396,378.361c0,4.219-3.422,7.639-7.643,7.639H121.642    c-4.221,0-7.642-3.42-7.642-7.639V230.938c0-4.219,3.421-7.639,7.642-7.639h33.989c-2.227,8.411-3.419,17.242-3.419,26.354    c0,56.74,46.02,102.737,102.789,102.737s102.789-45.997,102.789-102.737c0-9.111-1.193-17.942-3.42-26.354h33.988    c4.221,0,7.643,3.42,7.643,7.639V378.361z M396,181.289c0,4.218-3.422,7.638-7.643,7.638h-49.675c-4.221,0-7.642-3.42-7.642-7.638    v-49.65c0-4.219,3.421-7.639,7.642-7.639h49.675c4.221,0,7.643,3.42,7.643,7.639V181.289z M147.244,339.405    c-9.075,0-16.431,7.353-16.431,16.423s7.356,16.423,16.431,16.423c9.074,0,16.431-7.353,16.431-16.423    S156.318,339.405,147.244,339.405z" fill="#FFFFFF" fill-rule="evenodd"/></g></g><g id="Clip_Light_copy_22"><g><polygon fill="#456C8C" points="355,354 355,512.02 512,354   "/></g></g><g id="Shadow_Clip_copy_22" opacity="0.102"><g><polygon points="198,512 355,512 355,353.98   "/></g></g></svg>