<?xml version="1.0" encoding="utf-8"?>
<!-- Generator: Avocode 2.6.0 - http://avocode.com -->
<svg height="82" width="137" xmlns:xlink="http://www.w3.org/1999/xlink" xmlns="http://www.w3.org/2000/svg" viewBox="0 0 137 82">
    <path fill="#e52d20" fill-rule="evenodd" d="M 24.71 0.16 L 24 0.18 L 23.47 0.23 L 22.98 0.38 L 22.53 0.64 L 22.15 0.95 L 21.82 1.35 L 21.58 1.79 L 21.43 2.29 L 21.38 2.82 L 21.38 2.98 L 21.4 3.13 L 21.42 3.3 L 21.45 3.44 L 21.51 3.59 L 21.55 3.74 L 21.6 3.89 L 21.67 4.03 L 22.09 4.82 L 65.4 80.03 L 65.77 80.7 L 65.95 80.95 L 66.16 81.21 L 66.42 81.45 L 66.72 81.63 L 67.01 81.8 L 67.34 81.9 L 67.68 81.98 L 68.05 82 L 68.42 81.98 L 68.75 81.9 L 69.08 81.8 L 69.39 81.63 L 69.66 81.43 L 69.92 81.21 L 70.14 80.95 L 70.32 80.66 L 70.74 79.96 L 114.06 4.73 L 114.45 4.05 L 114.52 3.9 L 114.58 3.76 L 114.63 3.61 L 114.69 3.44 L 114.72 3.3 L 114.74 3.13 L 114.76 2.97 L 114.76 2.8 L 114.7 2.27 L 114.56 1.77 L 114.32 1.33 L 113.99 0.93 L 113.6 0.62 L 113.17 0.36 L 112.67 0.21 L 112.14 0.16 L 24.71 0.16 Z M 66.88 53.71 L 66.84 53.63 L 66.79 53.54 L 66.73 53.47 L 45.65 16.83 L 45.45 16.44 L 45.41 16.37 L 45.39 16.3 L 45.36 16.24 L 45.34 16.17 L 45.32 16.09 L 45.32 16.02 L 45.3 15.93 L 45.3 15.86 L 45.32 15.6 L 45.41 15.36 L 45.52 15.14 L 45.69 14.94 L 45.87 14.79 L 46.09 14.66 L 46.33 14.59 L 46.58 14.57 L 46.93 14.55 L 89.12 14.55 L 89.52 14.57 L 89.78 14.59 L 90.01 14.66 L 90.23 14.79 L 90.43 14.94 L 90.58 15.12 L 90.71 15.34 L 90.78 15.58 L 90.8 15.84 L 90.8 15.93 L 90.78 16 L 90.78 16.09 L 90.77 16.17 L 90.73 16.24 L 90.71 16.31 L 90.68 16.39 L 90.64 16.46 L 90.45 16.79 L 69.35 53.43 L 69.3 53.53 L 69.26 53.6 L 69.2 53.69 L 69.15 53.78 L 69.06 53.93 L 68.95 54.04 L 68.82 54.15 L 68.69 54.24 L 68.55 54.31 L 68.38 54.37 L 68.22 54.4 L 68.03 54.42 L 67.85 54.4 L 67.68 54.37 L 67.52 54.31 L 67.37 54.24 L 67.25 54.15 L 67.12 54.04 L 67.01 53.93 L 66.92 53.78 L 66.93 53.8 L 66.88 53.71 Z M 66.88 53.71" />
    <path fill="#fefefe" fill-rule="evenodd" d="M 62.64 20.77 L 4.27 20.77 C 2.71 20.77 1.43 22.11 1.43 23.76 L 1.43 37.7 C 1.43 39.34 2.71 40.69 4.27 40.69 L 73.6 40.69 L 62.64 20.77 Z M 62.64 20.77" />
    <path stroke-linejoin="miter" stroke-linecap="butt" stroke-width="1.586" stroke="#4999bb" fill="none" fill-rule="evenodd" d="M 62.64 20.77 L 4.27 20.77 C 2.71 20.77 1.43 22.11 1.43 23.76 L 1.43 37.7 C 1.43 39.34 2.71 40.69 4.27 40.69 L 73.6 40.69 L 62.64 20.77 L 62.64 20.77 Z M 62.64 20.77" />
    <path fill="#4999bb" fill-rule="evenodd" d="M 76.68 40.69 L 132.92 40.69 C 134.55 40.69 135.89 39.34 135.89 37.7 L 135.89 23.76 C 135.89 22.11 134.55 20.77 132.92 20.77 L 65.95 20.77 L 76.68 40.69 Z M 76.68 40.69" />
    <path stroke-linejoin="miter" stroke-linecap="butt" stroke-width="1.586" stroke="#4999bb" fill="none" fill-rule="evenodd" d="M 76.68 40.69 L 132.92 40.69 C 134.55 40.69 135.89 39.34 135.89 37.7 L 135.89 23.76 C 135.89 22.11 134.55 20.77 132.92 20.77 L 65.95 20.77 L 76.68 40.69 L 76.68 40.69 Z M 76.68 40.69" />
    <path fill="#4999bb" fill-rule="evenodd" d="M 8.21 29.68 L 10.61 29.68 L 13.96 25.91 L 16.62 25.91 L 12.49 30.83 L 16.87 35.95 L 14.13 35.95 L 10.61 32.01 L 8.21 32.01 L 8.21 35.95 L 6.01 35.95 L 6.01 25.91 L 8.21 25.91 L 8.21 29.68 Z M 8.21 29.68" />
    <path fill="#4999bb" fill-rule="evenodd" d="M 22.64 30.07 L 28.33 30.07 L 28.33 32.27 L 22.64 32.27 L 22.64 35.95 L 20.43 35.95 L 20.43 25.91 L 30.66 25.91 L 30.66 28.1 L 22.64 28.1 L 22.64 30.07 Z M 22.64 30.07" />
    <path fill="#4999bb" fill-rule="evenodd" d="M 51.42 35.95 L 49.22 35.95 L 49.22 25.91 L 52.72 25.91 L 54.97 32.22 L 55.05 32.22 L 57.23 25.91 L 60.72 25.91 L 60.72 35.95 L 58.52 35.95 L 58.74 28.25 L 58.66 28.25 L 55.89 35.95 L 54.07 35.95 L 51.27 28.25 L 51.2 28.25 L 51.42 35.95 Z M 51.42 35.95" />
    <path fill="#4999bb" fill-rule="evenodd" d="M 42.81 25.91 L 42.81 32.26 C 42.81 33.52 42 33.82 39.93 33.82 C 37.76 33.82 37.07 33.46 37.07 32.26 L 37.07 25.91 L 34.83 25.91 L 34.83 32.51 C 34.83 35.79 37.19 36 39.93 36 C 42.76 36 45.05 35.78 45.05 32.51 L 45.05 25.91 L 42.81 25.91 Z M 42.81 25.91" />
    <path fill="#fefefe" fill-rule="evenodd" d="M 123.06 29.7 L 125.46 29.7 L 128.8 25.92 L 131.47 25.92 L 127.34 30.85 L 131.71 35.97 L 128.98 35.97 L 125.46 32.03 L 123.06 32.03 L 123.06 35.97 L 120.86 35.97 L 120.86 25.92 L 123.06 25.92 L 123.06 29.7 Z M 123.06 29.7" />
    <path fill="#fefefe" fill-rule="evenodd" d="M 80.04 29.68 L 82.43 29.68 L 85.78 25.91 L 88.45 25.91 L 84.32 30.83 L 88.69 35.95 L 85.96 35.95 L 82.43 32.01 L 80.04 32.01 L 80.04 35.95 L 77.83 35.95 L 77.83 25.91 L 80.04 25.91 L 80.04 29.68 Z M 80.04 29.68" />
    <path fill="#fefefe" fill-rule="evenodd" d="M 94.26 30.07 L 99.96 30.07 L 99.96 32.27 L 94.26 32.27 L 94.26 35.95 L 92.06 35.95 L 92.06 25.91 L 102.3 25.91 L 102.3 28.1 L 94.26 28.1 L 94.26 30.07 Z M 94.26 30.07" />
    <path fill="#fefefe" fill-rule="evenodd" d="M 114.46 25.91 L 114.46 32.26 C 114.46 33.52 113.64 33.82 111.57 33.82 C 109.41 33.82 108.72 33.46 108.72 32.26 L 108.72 25.91 L 106.47 25.91 L 106.47 32.51 C 106.47 35.79 108.83 36 111.57 36 C 114.41 36 116.7 35.78 116.7 32.51 L 116.7 25.91 L 114.46 25.91 Z M 114.46 25.91" />
</svg>